<?xml version="1.0" encoding="utf-8"?>
<!-- Generator: Adobe Illustrator 24.1.1, SVG Export Plug-In . SVG Version: 6.00 Build 0)  -->
<svg version="1.1" id="Layer_1" xmlns="http://www.w3.org/2000/svg" xmlns:xlink="http://www.w3.org/1999/xlink" x="0px" y="0px"
	 viewBox="0 0 32 32" style="enable-background:new 0 0 32 32;" xml:space="preserve">
<path d="M16.23,0.44c-8.56,0-15.5,6.94-15.5,15.5s6.94,15.5,15.5,15.5s15.5-6.94,15.5-15.5S24.79,0.44,16.23,0.44z M4.19,23.78
	C3.73,23.07,3.33,22.32,3,21.53c-0.75-1.77-1.13-3.65-1.13-5.59c0-1.67,0.28-3.29,0.83-4.83l1.49,1.04
	C4.19,12.15,4.19,23.78,4.19,23.78z M26.38,26.1c-1.32,1.32-2.85,2.36-4.56,3.08c-1.77,0.75-3.65,1.13-5.59,1.13
	s-3.82-0.38-5.59-1.13c-1.71-0.72-3.24-1.76-4.57-3.08c-0.42-0.42-0.8-0.85-1.16-1.31h7.93l3.12-2.26V10.21l-3.12-2.33H4.34
	c0.51-0.75,1.08-1.45,1.73-2.09c1.32-1.32,2.85-2.36,4.57-3.08c1.77-0.75,3.65-1.13,5.59-1.13s3.82,0.38,5.59,1.13
	c1.71,0.72,3.24,1.76,4.56,3.08c0.65,0.65,1.23,1.35,1.73,2.09h-2.27l-0.51,1.13l-1.52-1.13H20.3l-3.1,2.33v12.31l3.09,2.26h7.26
	C27.19,25.24,26.8,25.68,26.38,26.1z M7.36,11.75h2.84c0.8,0,1.44,0.64,1.44,1.44v6.36c0,0.79-0.64,1.44-1.44,1.44H8.5v-8.41
	L7.36,11.75z M28.64,23.17v-4.39h-4.02v2.21h-1.74c-0.76,0-1.37-0.62-1.37-1.37v-7.04l-1.14-0.82h4.25v2.41h3.68l0.73-4.71
	c0.15,0.3,0.29,0.6,0.42,0.91c0.75,1.77,1.13,3.65,1.13,5.59s-0.38,3.82-1.13,5.59C29.22,22.1,28.95,22.64,28.64,23.17z"/>
</svg>
